<svg xmlns="http://www.w3.org/2000/svg" viewBox="-6.6728 -101.5547 108.2275 108.2275" width="800" height="800">
<rect x="-6.6728" y="-101.5547" width="108.2275" height="108.2275" fill="white"/>
<text x="-5.7243" y="-98.7093" font-size="2.3711" fill="#444">Temp/tempGraph.chf</text>
<polyline points="94.8640,-47.4410 94.8621,-47.8548 94.8567,-48.2686 94.8477,-48.6824 94.8351,-49.0960 94.8188,-49.5095 94.7990,-49.9229 94.7755,-50.3361 94.7484,-50.7490 94.7178,-51.1617 94.6835,-51.5742 94.6456,-51.9863 94.6042,-52.3980 94.5591,-52.8094 94.5105,-53.2204 94.4582,-53.6309 94.4024,-54.0410 94.3431,-54.4505 94.2801,-54.8596 94.2136,-55.2680 94.1435,-55.6759 94.0699,-56.0831 93.9927,-56.4897 93.9119,-56.8956 93.8276,-57.3008 93.7398,-57.7052 93.6485,-58.1088 93.5537,-58.5117 93.4553,-58.9136 93.3534,-59.3147 93.2481,-59.7149 93.1392,-60.1142 93.0269,-60.5125 92.9111,-60.9098 92.7918,-61.3061 92.6691,-61.7013 92.5429,-62.0955 92.4133,-62.4885 92.2803,-62.8804 92.1438,-63.2711 92.0040,-63.6606 91.8608,-64.0489 91.7141,-64.4359 91.5641,-64.8216 91.4108,-65.2059 91.2541,-65.5890 91.0941,-65.9706 90.9307,-66.3508 90.7640,-66.7296 90.5940,-67.1070 90.4208,-67.4828 90.2443,-67.8571 90.0645,-68.2298 89.8814,-68.6010 89.6952,-68.9706 89.5057,-69.3385 89.3130,-69.7047 89.1171,-70.0693 88.9180,-70.4321 88.7158,-70.7932 88.5105,-71.1525 88.3020,-71.5100 88.0904,-71.8656 87.8757,-72.2194 87.6579,-72.5713 87.4371,-72.9213 87.2132,-73.2694 86.9863,-73.6155 86.7564,-73.9596 86.5235,-74.3016 86.2876,-74.6417 86.0488,-74.9796 85.8070,-75.3155 85.5623,-75.6492 85.3147,-75.9808 85.0642,-76.3103 84.8108,-76.6375 84.5546,-76.9625 84.2956,-77.2852 84.0337,-77.6057 83.7691,-77.9239 83.5017,-78.2397 83.2316,-78.5532 82.9587,-78.8644 82.6831,-79.1731 82.4049,-79.4795 82.1239,-79.7834 81.8404,-80.0848 81.5542,-80.3837 81.2654,-80.6802 80.9741,-80.9741 80.6802,-81.2654 80.3837,-81.5542 80.0848,-81.8404 79.7834,-82.1239 79.4795,-82.4049 79.1731,-82.6831 78.8644,-82.9587 78.5532,-83.2316 78.2397,-83.5017 77.9239,-83.7691 77.6057,-84.0337 77.2852,-84.2956 76.9625,-84.5546 76.6375,-84.8108 76.3103,-85.0642 75.9808,-85.3147 75.6492,-85.5623 75.3155,-85.8070 74.9796,-86.0488 74.6417,-86.2876 74.3016,-86.5235 73.9596,-86.7564 73.6155,-86.9863 73.2694,-87.2132 72.9213,-87.4371 72.5713,-87.6579 72.2194,-87.8757 71.8656,-88.0904 71.5100,-88.3020 71.1525,-88.5105 70.7932,-88.7158 70.4321,-88.9180 70.0693,-89.1171 69.7047,-89.3130 69.3385,-89.5057 68.9706,-89.6952 68.6010,-89.8814 68.2298,-90.0645 67.8571,-90.2443 67.4828,-90.4208 67.1070,-90.5940 66.7296,-90.7640 66.3508,-90.9307 65.9706,-91.0941 65.5890,-91.2541 65.2059,-91.4108 64.8216,-91.5641 64.4359,-91.7141 64.0489,-91.8608 63.6606,-92.0040 63.2711,-92.1438 62.8804,-92.2803 62.4885,-92.4133 62.0955,-92.5429 61.7013,-92.6691 61.3061,-92.7918 60.9098,-92.9111 60.5125,-93.0269 60.1142,-93.1392 59.7149,-93.2481 59.3147,-93.3534 58.9136,-93.4553 58.5117,-93.5537 58.1088,-93.6485 57.7052,-93.7398 57.3008,-93.8276 56.8956,-93.9119 56.4897,-93.9927 56.0831,-94.0699 55.6759,-94.1435 55.2680,-94.2136 54.8596,-94.2801 54.4505,-94.3431 54.0410,-94.4024 53.6309,-94.4582 53.2204,-94.5105 52.8094,-94.5591 52.3980,-94.6042 51.9863,-94.6456 51.5742,-94.6835 51.1617,-94.7178 50.7490,-94.7484 50.3361,-94.7755 49.9229,-94.7990 49.5095,-94.8188 49.0960,-94.8351 48.6824,-94.8477 48.2686,-94.8567 47.8548,-94.8621 47.4410,-94.8640 47.0271,-94.8621 46.6133,-94.8567 46.1996,-94.8477 45.7859,-94.8351 45.3724,-94.8188 44.9591,-94.7990 44.5459,-94.7755 44.1329,-94.7484 43.7202,-94.7178 43.3078,-94.6835 42.8957,-94.6456 42.4839,-94.6042 42.0725,-94.5591 41.6616,-94.5105 41.2510,-94.4582 40.8410,-94.4024 40.4314,-94.3431 40.0224,-94.2801 39.6139,-94.2136 39.2061,-94.1435 38.7988,-94.0699 38.3922,-93.9927 37.9864,-93.9119 37.5812,-93.8276 37.1768,-93.7398 36.7731,-93.6485 36.3703,-93.5537 35.9683,-93.4553 35.5672,-93.3534 35.1670,-93.2481 34.7677,-93.1392 34.3694,-93.0269 33.9721,-92.9111 33.5758,-92.7918 33.1806,-92.6691 32.7865,-92.5429 32.3934,-92.4133 32.0016,-92.2803 31.6109,-92.1438 31.2214,-92.0040 30.8331,-91.8608 30.4461,-91.7141 30.0604,-91.5641 29.6760,-91.4108 29.2930,-91.2541 28.9113,-91.0941 28.5311,-90.9307 28.1523,-90.7640 27.7750,-90.5940 27.3992,-90.4208 27.0249,-90.2443 26.6521,-90.0645 26.2809,-89.8814 25.9114,-89.6952 25.5435,-89.5057 25.1772,-89.3130 24.8127,-89.1171 24.4499,-88.9180 24.0888,-88.7158 23.7295,-88.5105 23.3720,-88.3020 23.0163,-88.0904 22.6625,-87.8757 22.3106,-87.6579 21.9606,-87.4371 21.6126,-87.2132 21.2665,-86.9863 20.9224,-86.7564 20.5803,-86.5235 20.2403,-86.2876 19.9023,-86.0488 19.5665,-85.8070 19.2327,-85.5623 18.9011,-85.3147 18.5717,-85.0642 18.2445,-84.8108 17.9195,-84.5546 17.5967,-84.2956 17.2763,-84.0337 16.9581,-83.7691 16.6422,-83.5017 16.3287,-83.2316 16.0176,-82.9587 15.7088,-82.6831 15.4025,-82.4049 15.0986,-82.1239 14.7972,-81.8404 14.4982,-81.5542 14.2018,-81.2654 13.9079,-80.9741 13.6165,-80.6802 13.3277,-80.3837 13.0416,-80.0848 12.7580,-79.7834 12.4771,-79.4795 12.1988,-79.1731 11.9233,-78.8644 11.6504,-78.5532 11.3803,-78.2397 11.1129,-77.9239 10.8482,-77.6057 10.5864,-77.2852 10.3274,-76.9625 10.0712,-76.6375 9.8178,-76.3103 9.5673,-75.9808 9.3197,-75.6492 9.0750,-75.3155 8.8332,-74.9796 8.5943,-74.6417 8.3585,-74.3016 8.1255,-73.9596 7.8956,-73.6155 7.6687,-73.2694 7.4448,-72.9213 7.2240,-72.5713 7.0062,-72.2194 6.7916,-71.8656 6.5800,-71.5100 6.3715,-71.1525 6.1661,-70.7932 5.9639,-70.4321 5.7649,-70.0693 5.5690,-69.7047 5.3763,-69.3385 5.1868,-68.9706 5.0005,-68.6010 4.8175,-68.2298 4.6377,-67.8571 4.4612,-67.4828 4.2879,-67.1070 4.1179,-66.7296 3.9513,-66.3508 3.7879,-65.9706 3.6279,-65.5890 3.4712,-65.2059 3.3178,-64.8216 3.1678,-64.4359 3.0212,-64.0489 2.8780,-63.6606 2.7381,-63.2711 2.6017,-62.8804 2.4686,-62.4885 2.3390,-62.0955 2.2129,-61.7013 2.0902,-61.3061 1.9709,-60.9098 1.8551,-60.5125 1.7428,-60.1142 1.6339,-59.7149 1.5285,-59.3147 1.4267,-58.9136 1.3283,-58.5117 1.2334,-58.1088 1.1421,-57.7052 1.0543,-57.3008 0.9700,-56.8956 0.8893,-56.4897 0.8121,-56.0831 0.7385,-55.6759 0.6684,-55.2680 0.6019,-54.8596 0.5389,-54.4505 0.4795,-54.0410 0.4237,-53.6309 0.3715,-53.2204 0.3228,-52.8094 0.2778,-52.3980 0.2363,-51.9863 0.1985,-51.5742 0.1642,-51.1617 0.1335,-50.7490 0.1065,-50.3361 0.0830,-49.9229 0.0631,-49.5095 0.0469,-49.0960 0.0343,-48.6824 0.0252,-48.2686 0.0198,-47.8548 0.0180,-47.4410 0.0198,-47.0271 0.0252,-46.6133 0.0343,-46.1996 0.0469,-45.7859 0.0631,-45.3724 0.0830,-44.9591 0.1065,-44.5459 0.1335,-44.1329 0.1642,-43.7202 0.1985,-43.3078 0.2363,-42.8957 0.2778,-42.4839 0.3228,-42.0725 0.3715,-41.6616 0.4237,-41.2510 0.4795,-40.8410 0.5389,-40.4314 0.6019,-40.0224 0.6684,-39.6139 0.7385,-39.2061 0.8121,-38.7988 0.8893,-38.3922 0.9700,-37.9864 1.0543,-37.5812 1.1421,-37.1768 1.2334,-36.7731 1.3283,-36.3703 1.4267,-35.9683 1.5285,-35.5672 1.6339,-35.1670 1.7428,-34.7677 1.8551,-34.3694 1.9709,-33.9721 2.0902,-33.5758 2.2129,-33.1806 2.3390,-32.7865 2.4686,-32.3934 2.6017,-32.0016 2.7381,-31.6109 2.8780,-31.2214 3.0212,-30.8331 3.1678,-30.4461 3.3178,-30.0604 3.4712,-29.6760 3.6279,-29.2930 3.7879,-28.9113 3.9513,-28.5311 4.1179,-28.1523 4.2879,-27.7750 4.4612,-27.3992 4.6377,-27.0249 4.8175,-26.6521 5.0005,-26.2809 5.1868,-25.9114 5.3763,-25.5435 5.5690,-25.1772 5.7649,-24.8127 5.9639,-24.4499 6.1661,-24.0888 6.3715,-23.7295 6.5800,-23.3720 6.7916,-23.0163 7.0062,-22.6625 7.2240,-22.3106 7.4448,-21.9606 7.6687,-21.6126 7.8956,-21.2665 8.1255,-20.9224 8.3585,-20.5803 8.5943,-20.2403 8.8332,-19.9023 9.0750,-19.5665 9.3197,-19.2327 9.5673,-18.9011 9.8178,-18.5717 10.0712,-18.2445 10.3274,-17.9195 10.5864,-17.5967 10.8482,-17.2763 11.1129,-16.9581 11.3803,-16.6422 11.6504,-16.3287 11.9233,-16.0176 12.1988,-15.7088 12.4771,-15.4025 12.7580,-15.0986 13.0416,-14.7972 13.3277,-14.4982 13.6165,-14.2018 13.9079,-13.9079 14.2018,-13.6165 14.4982,-13.3277 14.7972,-13.0416 15.0986,-12.7580 15.4025,-12.4771 15.7088,-12.1988 16.0176,-11.9233 16.3287,-11.6504 16.6422,-11.3803 16.9581,-11.1129 17.2763,-10.8482 17.5967,-10.5864 17.9195,-10.3274 18.2445,-10.0712 18.5717,-9.8178 18.9011,-9.5673 19.2327,-9.3197 19.5665,-9.0750 19.9023,-8.8332 20.2403,-8.5943 20.5803,-8.3585 20.9224,-8.1255 21.2665,-7.8956 21.6126,-7.6687 21.9606,-7.4448 22.3106,-7.2240 22.6625,-7.0062 23.0163,-6.7916 23.3720,-6.5800 23.7295,-6.3715 24.0888,-6.1661 24.4499,-5.9639 24.8127,-5.7649 25.1772,-5.5690 25.5435,-5.3763 25.9114,-5.1868 26.2809,-5.0005 26.6521,-4.8175 27.0249,-4.6377 27.3992,-4.4612 27.7750,-4.2879 28.1523,-4.1179 28.5311,-3.9513 28.9113,-3.7879 29.2930,-3.6279 29.6760,-3.4712 30.0604,-3.3178 30.4461,-3.1678 30.8331,-3.0212 31.2214,-2.8780 31.6109,-2.7381 32.0016,-2.6017 32.3934,-2.4686 32.7865,-2.3390 33.1806,-2.2129 33.5758,-2.0902 33.9721,-1.9709 34.3694,-1.8551 34.7677,-1.7428 35.1670,-1.6339 35.5672,-1.5285 35.9683,-1.4267 36.3703,-1.3283 36.7731,-1.2334 37.1768,-1.1421 37.5812,-1.0543 37.9864,-0.9700 38.3922,-0.8893 38.7988,-0.8121 39.2061,-0.7385 39.6139,-0.6684 40.0224,-0.6019 40.4314,-0.5389 40.8410,-0.4795 41.2510,-0.4237 41.6616,-0.3715 42.0725,-0.3228 42.4839,-0.2778 42.8957,-0.2363 43.3078,-0.1985 43.7202,-0.1642 44.1329,-0.1335 44.5459,-0.1065 44.9591,-0.0830 45.3724,-0.0631 45.7859,-0.0469 46.1996,-0.0343 46.6133,-0.0252 47.0271,-0.0198 47.4410,-0.0180 47.8548,-0.0198 48.2686,-0.0252 48.6824,-0.0343 49.0960,-0.0469 49.5095,-0.0631 49.9229,-0.0830 50.3361,-0.1065 50.7490,-0.1335 51.1617,-0.1642 51.5742,-0.1985 51.9863,-0.2363 52.3980,-0.2778 52.8094,-0.3228 53.2204,-0.3715 53.6309,-0.4237 54.0410,-0.4795 54.4505,-0.5389 54.8596,-0.6019 55.2680,-0.6684 55.6759,-0.7385 56.0831,-0.8121 56.4897,-0.8893 56.8956,-0.9700 57.3008,-1.0543 57.7052,-1.1421 58.1088,-1.2334 58.5117,-1.3283 58.9136,-1.4267 59.3147,-1.5285 59.7149,-1.6339 60.1142,-1.7428 60.5125,-1.8551 60.9098,-1.9709 61.3061,-2.0902 61.7013,-2.2129 62.0955,-2.3390 62.4885,-2.4686 62.8804,-2.6017 63.2711,-2.7381 63.6606,-2.8780 64.0489,-3.0212 64.4359,-3.1678 64.8216,-3.3178 65.2059,-3.4712 65.5890,-3.6279 65.9706,-3.7879 66.3508,-3.9513 66.7296,-4.1179 67.1070,-4.2879 67.4828,-4.4612 67.8571,-4.6377 68.2298,-4.8175 68.6010,-5.0005 68.9706,-5.1868 69.3385,-5.3763 69.7047,-5.5690 70.0693,-5.7649 70.4321,-5.9639 70.7932,-6.1661 71.1525,-6.3715 71.5100,-6.5800 71.8656,-6.7916 72.2194,-7.0062 72.5713,-7.2240 72.9213,-7.4448 73.2694,-7.6687 73.6155,-7.8956 73.9596,-8.1255 74.3016,-8.3585 74.6417,-8.5943 74.9796,-8.8332 75.3155,-9.0750 75.6492,-9.3197 75.9808,-9.5673 76.3103,-9.8178 76.6375,-10.0712 76.9625,-10.3274 77.2852,-10.5864 77.6057,-10.8482 77.9239,-11.1129 78.2397,-11.3803 78.5532,-11.6504 78.8644,-11.9233 79.1731,-12.1988 79.4795,-12.4771 79.7834,-12.7580 80.0848,-13.0416 80.3837,-13.3277 80.6802,-13.6165 80.9741,-13.9079 81.2654,-14.2018 81.5542,-14.4982 81.8404,-14.7972 82.1239,-15.0986 82.4049,-15.4025 82.6831,-15.7088 82.9587,-16.0176 83.2316,-16.3287 83.5017,-16.6422 83.7691,-16.9581 84.0337,-17.2763 84.2956,-17.5967 84.5546,-17.9195 84.8108,-18.2445 85.0642,-18.5717 85.3147,-18.9011 85.5623,-19.2327 85.8070,-19.5665 86.0488,-19.9023 86.2876,-20.2403 86.5235,-20.5803 86.7564,-20.9224 86.9863,-21.2665 87.2132,-21.6126 87.4371,-21.9606 87.6579,-22.3106 87.8757,-22.6625 88.0904,-23.0163 88.3020,-23.3720 88.5105,-23.7295 88.7158,-24.0888 88.9180,-24.4499 89.1171,-24.8127 89.3130,-25.1772 89.5057,-25.5435 89.6952,-25.9114 89.8814,-26.2809 90.0645,-26.6521 90.2443,-27.0249 90.4208,-27.3992 90.5940,-27.7750 90.7640,-28.1523 90.9307,-28.5311 91.0941,-28.9113 91.2541,-29.2930 91.4108,-29.6760 91.5641,-30.0604 91.7141,-30.4461 91.8608,-30.8331 92.0040,-31.2214 92.1438,-31.6109 92.2803,-32.0016 92.4133,-32.3934 92.5429,-32.7865 92.6691,-33.1806 92.7918,-33.5758 92.9111,-33.9721 93.0269,-34.3694 93.1392,-34.7677 93.2481,-35.1670 93.3534,-35.5672 93.4553,-35.9683 93.5537,-36.3703 93.6485,-36.7731 93.7398,-37.1768 93.8276,-37.5812 93.9119,-37.9864 93.9927,-38.3922 94.0699,-38.7988 94.1435,-39.2061 94.2136,-39.6139 94.2801,-40.0224 94.3431,-40.4314 94.4024,-40.8410 94.4582,-41.2510 94.5105,-41.6616 94.5591,-42.0725 94.6042,-42.4839 94.6456,-42.8957 94.6835,-43.3078 94.7178,-43.7202 94.7484,-44.1329 94.7755,-44.5459 94.7990,-44.9591 94.8188,-45.3724 94.8351,-45.7859 94.8477,-46.1996 94.8567,-46.6133 94.8621,-47.0271 94.8640,-47.4410" fill="none" stroke="#d62728" stroke-width="0.2371"/>
<circle cx="94.8640" cy="-47.4410" r="0.3557" fill="none" stroke="#d62728" stroke-width="0.1186"/>
<text x="95.3382" y="-47.9152" font-size="1.4227" fill="#d62728">1</text>
</svg>